# xmcd
#
# Track frame offsets: 
#        150
#        5232
#        29652
#        47890
#        54820
#        80842
#        98037
#        123475
#
# Disc length: 1965 seconds
#
# Revision: 0
# Processed by: cddbd v1.5.2PL0 Copyright (c) Steve Scherf et al.
# Submitted via: ExactAudioCopy v1.3
#
DISCID=6807ab08
DTITLE=DJ YAS meets Tommy Guerrerro - Angler Fish
DYEAR=2002
DGENRE=Hip-Hop
TTITLE0=STORY TELLING
TTITLE1=Angler Fish
TTITLE2=子供達に未来を
TTITLE3=THINK
TTITLE4=Angler Fish Dub (深海MIX)
TTITLE5=∞
TTITLE6=FRESH BEAT
TTITLE7=THIS IS A CONVERSATION
EXTD=
EXTT0=
EXTT1=
EXTT2=
EXTT3=
EXTT4=
EXTT5=
EXTT6=
EXTT7=
PLAYORDER=
